[Header]
FileType HTR
DataType HTRS
FileVersion 1
NumSegments 64
NumFrames 4
DataFrameRate 30
EulerRotationOrder ZYX
CalibrationUnits mm
RotationUnits Degrees
GlobalAxisofGravity Y
BoneLengthAxis Y
ScaleFactor 1.0
[SegmentNames&Hierarchy]
Hips	GLOBAL
Spine	Hips
Spine1	Spine
Spine2	Spine1
Neck	Spine2
Head	Neck
LeftEye	Head
RightEye	Head
LeftShoulder	Spine2
LeftArm	LeftShoulder
LeftForeArm	LeftArm
LeftHand	LeftForeArm
LeftHandThumb1	LeftHand
LeftHandThumb2	LeftHandThumb1
LeftHandThumb3	LeftHandThumb2
LeftHandThumb4	LeftHandThumb3
LeftHandIndex1	LeftHand
LeftHandIndex2	LeftHandIndex1
LeftHandIndex3	LeftHandIndex2
LeftHandIndex4	LeftHandIndex3
LeftHandMiddle1	LeftHand
LeftHandMiddle2	LeftHandMiddle1
LeftHandMiddle3	LeftHandMiddle2
LeftHandMiddle4	LeftHandMiddle3
LeftHandRing1	LeftHand
LeftHandRing2	LeftHandRing1
LeftHandRing3	LeftHandRing2
LeftHandRing4	LeftHandRing3
LeftHandPinky1	LeftHand
LeftHandPinky2	LeftHandPinky1
LeftHandPinky3	LeftHandPinky2
LeftHandPinky4	LeftHandPinky3
RightShoulder	Spine2
RightArm	RightShoulder
RightForeArm	RightArm
RightHand	RightForeArm
RightHandPinky1	RightHand
RightHandPinky2	RightHandPinky1
RightHandPinky3	RightHandPinky2
RightHandPinky4	RightHandPinky3
RightHandRing1	RightHand
RightHandRing2	RightHandRing1
RightHandRing3	RightHandRing2
RightHandRing4	RightHandRing3
RightHandMiddle1	RightHand
RightHandMiddle2	RightHandMiddle1
RightHandMiddle3	RightHandMiddle2
RightHandMiddle4	RightHandMiddle3
RightHandIndex1	RightHand
RightHandIndex2	RightHandIndex1
RightHandIndex3	RightHandIndex2
RightHandIndex4	RightHandIndex3
RightHandThumb1	RightHand
RightHandThumb2	RightHandThumb1
RightHandThumb3	RightHandThumb2
RightHandThumb4	RightHandThumb3
LeftUpLeg	Hips
LeftLeg	LeftUpLeg
LeftFoot	LeftLeg
LeftToeBase	LeftFoot
RightUpLeg	Hips
RightLeg	RightUpLeg
RightFoot	RightLeg
RightToeBase	RightFoot
[BasePosition]
Hips	0	0	0	0	0	0	1
Spine	0	0	0	0	0	0	1
Spine1	0	0	0	0	0	0	1
Spine2	0	0	0	0	0	0	1
Neck	0	0	0	0	0	0	1
Head	0	0	0	0	0	0	1
LeftEye	0	0	0	0	0	0	1
RightEye	0	0	0	0	0	0	1
LeftShoulder	0	0	0	0	0	0	1
LeftArm	0	0	0	0	0	0	1
LeftForeArm	0	0	0	0	0	0	1
LeftHand	0	0	0	0	0	0	1
LeftHandThumb1	0	0	0	0	0	0	1
LeftHandThumb2	0	0	0	0	0	0	1
LeftHandThumb3	0	0	0	0	0	0	1
LeftHandThumb4	0	0	0	0	0	0	1
LeftHandIndex1	0	0	0	0	0	0	1
LeftHandIndex2	0	0	0	0	0	0	1
LeftHandIndex3	0	0	0	0	0	0	1
LeftHandIndex4	0	0	0	0	0	0	1
LeftHandMiddle1	0	0	0	0	0	0	1
LeftHandMiddle2	0	0	0	0	0	0	1
LeftHandMiddle3	0	0	0	0	0	0	1
LeftHandMiddle4	0	0	0	0	0	0	1
LeftHandRing1	0	0	0	0	0	0	1
LeftHandRing2	0	0	0	0	0	0	1
LeftHandRing3	0	0	0	0	0	0	1
LeftHandRing4	0	0	0	0	0	0	1
LeftHandPinky1	0	0	0	0	0	0	1
LeftHandPinky2	0	0	0	0	0	0	1
LeftHandPinky3	0	0	0	0	0	0	1
LeftHandPinky4	0	0	0	0	0	0	1
RightShoulder	0	0	0	0	0	0	1
RightArm	0	0	0	0	0	0	1
RightForeArm	0	0	0	0	0	0	1
RightHand	0	0	0	0	0	0	1
RightHandPinky1	0	0	0	0	0	0	1
RightHandPinky2	0	0	0	0	0	0	1
RightHandPinky3	0	0	0	0	0	0	1
RightHandPinky4	0	0	0	0	0	0	1
RightHandRing1	0	0	0	0	0	0	1
RightHandRing2	0	0	0	0	0	0	1
RightHandRing3	0	0	0	0	0	0	1
RightHandRing4	0	0	0	0	0	0	1
RightHandMiddle1	0	0	0	0	0	0	1
RightHandMiddle2	0	0	0	0	0	0	1
RightHandMiddle3	0	0	0	0	0	0	1
RightHandMiddle4	0	0	0	0	0	0	1
RightHandIndex1	0	0	0	0	0	0	1
RightHandIndex2	0	0	0	0	0	0	1
RightHandIndex3	0	0	0	0	0	0	1
RightHandIndex4	0	0	0	0	0	0	1
RightHandThumb1	0	0	0	0	0	0	1
RightHandThumb2	0	0	0	0	0	0	1
RightHandThumb3	0	0	0	0	0	0	1
RightHandThumb4	0	0	0	0	0	0	1
LeftUpLeg	0	0	0	0	0	0	1
LeftLeg	0	0	0	0	0	0	1
LeftFoot	0	0	0	0	0	0	1
LeftToeBase	0	0	0	0	0	0	1
RightUpLeg	0	0	0	0	0	0	1
RightLeg	0	0	0	0	0	0	1
RightFoot	0	0	0	0	0	0	1
RightToeBase	0	0	0	0	0	0	1
[Hips]
110	-5.203459263	1034.162842	20.93418884	-3.99429059	-5.018396854	-2.731230021	1.0
111	-5.021588802	1034.219849	20.8342514	-3.957087994	-5.036560059	-2.735289097	1.0
112	-4.838951111	1034.290894	20.78260612	-3.926335573	-5.05483532	-2.73820138	1.0
113	-4.643179893	1034.384766	20.79598236	-3.905097485	-5.077141762	-2.733919144	1.0
[Spine]
110	0	101.8159943	1.315000057	3.223005533	1.640092731	3.014036417	1.0
111	0	101.8159943	1.315000057	3.18638134	1.641707301	3.01066041	1.0
112	0	101.8159943	1.315000057	3.143042803	1.644100308	3.006259441	1.0
113	0	101.8159943	1.315000057	3.100638628	1.647674561	2.998656988	1.0
[Spine1]
110	0	100.8349991	-10.00800037	1.105325818	0.4183344245	1.650258303	1.0
111	0	100.8349991	-10.00800037	1.095424414	0.4183425009	1.649040699	1.0
112	0	100.8349991	-10.00800037	1.083140254	0.4187090695	1.647657156	1.0
113	0	100.8349991	-10.00800037	1.070928693	0.4196905196	1.645449042	1.0
[Spine2]
110	0	91	-13.73399925	1.07996273	0.44130674	1.653243899	1.0
111	0	91	-13.73399925	1.070055485	0.4412763715	1.652107596	1.0
112	0	91	-13.73399925	1.057760835	0.4416063428	1.650809526	1.0
113	0	91	-13.73399925	1.045532346	0.442561388	1.648679018	1.0
[Neck]
110	0	166.7169952	-25.16200066	5.43503952	-0.2905693054	0.6457570791	1.0
111	0	166.7169952	-25.16200066	5.38527298	-0.2922696471	0.6515818834	1.0
112	0	166.7169952	-25.16200066	5.342814445	-0.2940930426	0.6537663341	1.0
113	0	166.7169952	-25.16200066	5.30618763	-0.2942157388	0.6485493779	1.0
[Head]
110	0	96.17900085	16.84999847	-7.777899742	1.013448238	-0.1945470721	1.0
111	0	96.17900085	16.84999847	-7.823730946	1.009338975	-0.1883419007	1.0
112	0	96.17900085	16.84999847	-7.833014011	1.000520945	-0.1802620143	1.0
113	0	96.17900085	16.84999847	-7.821582317	0.9941717982	-0.1843204349	1.0
[LeftEye]
110	30.6760006	64.09500122	92.83599854	0	0	0	1.0
111	30.6760006	64.09500122	92.83599854	0	0	0	1.0
112	30.6760006	64.09500122	92.83599854	0	0	0	1.0
113	30.6760006	64.09500122	92.83599854	0	0	0	1.0
[RightEye]
110	-30.6760006	64.09500122	92.83499908	0	0	0	1.0
111	-30.6760006	64.09500122	92.83499908	0	0	0	1.0
112	-30.6760006	64.09500122	92.83499908	0	0	0	1.0
113	-30.6760006	64.09500122	92.83499908	0	0	0	1.0
[LeftShoulder]
110	45.70400238	109.4599991	-26.28000069	4.737589359	-16.22734833	-12.49196053	1.0
111	45.70400238	109.4599991	-26.28000069	4.732828617	-16.21433258	-12.46994019	1.0
112	45.70400238	109.4599991	-26.28000069	4.730051994	-16.19957352	-12.45959568	1.0
113	45.70400238	109.4599991	-26.28000069	4.728791714	-16.18115044	-12.45900536	1.0
[LeftArm]
110	105.923996	-5.24600029	-22.32099915	20.07669449	-3.205208063	-72.14587402	1.0
111	105.923996	-5.24600029	-22.32099915	20.08856392	-3.180777073	-72.18120575	1.0
112	105.923996	-5.24600029	-22.32099915	20.10170174	-3.145310163	-72.20168304	1.0
113	105.923996	-5.24600029	-22.32099915	20.10456848	-3.111015558	-72.20333099	1.0
[LeftForeArm]
110	278.414978	-0.0009999999311	0	-1.90470455e-05	-1.466971993	-0.0001943602838	1.0
111	278.414978	-0.0009999999311	0	1.043452244e-06	-1.466312408	-0.0002085958549	1.0
112	278.414978	-0.0009999999311	0	-9.311446775e-06	-1.462337613	-0.0002058200043	1.0
113	278.414978	-0.0009999999311	0	-8.772479305e-06	-1.459399462	-0.0001737649436	1.0
[LeftHand]
110	283.2879944	0	0	-32.44734192	-4.604556084	-4.86776638	1.0
111	283.2879944	0	0	-32.3916893	-4.587474823	-4.865925312	1.0
112	283.2879944	0	0	-32.34941101	-4.562019825	-4.885885715	1.0
113	283.2879944	0	0	-32.3236351	-4.545129299	-4.932206631	1.0
[LeftHandThumb1]
110	24.6609993	-15.75	26.8239994	-0.4889889657	2.201390743	4.818541527	1.0
111	24.6609993	-15.75	26.8239994	-0.4889889657	2.201390743	4.818541527	1.0
112	24.6609993	-15.75	26.8239994	-0.4889889657	2.201390743	4.818541527	1.0
113	24.6609993	-15.75	26.8239994	-0.4889889657	2.201390743	4.818541527	1.0
[LeftHandThumb2]
110	32.29800034	-18.64699936	18.64699936	19.88581276	19.96446037	23.26738167	1.0
111	32.29800034	-18.64699936	18.64699936	19.88581276	19.96446037	23.26738167	1.0
112	32.29800034	-18.64699936	18.64699936	19.88581276	19.96446037	23.26738167	1.0
113	32.29800034	-18.64699936	18.64699936	19.88581276	19.96446037	23.26738167	1.0
[LeftHandThumb3]
110	26.52600098	-15.31499958	15.31499958	-13.14535904	5.551738262	7.967928886	1.0
111	26.52600098	-15.31499958	15.31499958	-13.14535904	5.551738262	7.967928886	1.0
112	26.52600098	-15.31499958	15.31499958	-13.14535904	5.551738262	7.967928886	1.0
113	26.52600098	-15.31499958	15.31499958	-13.14535904	5.551738262	7.967928886	1.0
[LeftHandThumb4]
110	19.54599953	-11.28499985	11.28499985	0	0	0	1.0
111	19.54599953	-11.28499985	11.28499985	0	0	0	1.0
112	19.54599953	-11.28499985	11.28499985	0	0	0	1.0
113	19.54599953	-11.28499985	11.28499985	0	0	0	1.0
[LeftHandIndex1]
110	91.09299469	-5.170999527	22.60099792	0.1480516791	-0.9618676901	-7.594518185	1.0
111	91.09299469	-5.170999527	22.60099792	0.1480516791	-0.9618676901	-7.594518185	1.0
112	91.09299469	-5.170999527	22.60099792	0.1480516791	-0.9618676901	-7.594518185	1.0
113	91.09299469	-5.170999527	22.60099792	0.1480516791	-0.9618676901	-7.594518185	1.0
[LeftHandIndex2]
110	36.76399994	0	0	-0.2667043209	1.745171905	-17.37646866	1.0
111	36.76399994	0	0	-0.2667043209	1.745171905	-17.37646866	1.0
112	36.76399994	0	0	-0.2667043209	1.745171905	-17.37646866	1.0
113	36.76399994	0	0	-0.2667043209	1.745171905	-17.37646866	1.0
[LeftHandIndex3]
110	28.83100128	0	0	-0.05742863193	0.817338407	-8.038370132	1.0
111	28.83100128	0	0	-0.05742863193	0.817338407	-8.038370132	1.0
112	28.83100128	0	0	-0.05742863193	0.817338407	-8.038370132	1.0
113	28.83100128	0	0	-0.05742863193	0.817338407	-8.038370132	1.0
[LeftHandIndex4]
110	23.92700005	0	0	0	0	0	1.0
111	23.92700005	0	0	0	0	0	1.0
112	23.92700005	0	0	0	0	0	1.0
113	23.92700005	0	0	0	0	0	1.0
[LeftHandMiddle1]
110	95.33399963	0	0	-0.7942916155	2.538622379	-15.71737862	1.0
111	95.33399963	0	0	-0.7942916155	2.538622379	-15.71737862	1.0
112	95.33399963	0	0	-0.7942916155	2.538622379	-15.71737862	1.0
113	95.33399963	0	0	-0.7942916155	2.538622379	-15.71737862	1.0
[LeftHandMiddle2]
110	36.98199844	0	0	-0.267610997	1.748071074	-17.40625954	1.0
111	36.98199844	0	0	-0.267610997	1.748071074	-17.40625954	1.0
112	36.98199844	0	0	-0.267610997	1.748071074	-17.40625954	1.0
113	36.98199844	0	0	-0.267610997	1.748071074	-17.40625954	1.0
[LeftHandMiddle3]
110	29.50900078	0	0	-0.2992140949	1.84580946	-18.41413307	1.0
111	29.50900078	0	0	-0.2992140949	1.84580946	-18.41413307	1.0
112	29.50900078	0	0	-0.2992140949	1.84580946	-18.41413307	1.0
113	29.50900078	0	0	-0.2992140949	1.84580946	-18.41413307	1.0
[LeftHandMiddle4]
110	28.3390007	0	0	0	0	0	1.0
111	28.3390007	0	0	0	0	0	1.0
112	28.3390007	0	0	0	0	0	1.0
113	28.3390007	0	0	0	0	0	1.0
[LeftHandRing1]
110	91.04499817	-0.4390000105	-18.65100098	-1.184956431	3.436642885	-21.16632462	1.0
111	91.04499817	-0.4390000105	-18.65100098	-1.184956431	3.436642885	-21.16632462	1.0
112	91.04499817	-0.4390000105	-18.65100098	-1.184956431	3.436642885	-21.16632462	1.0
113	91.04499817	-0.4390000105	-18.65100098	-1.184956431	3.436642885	-21.16632462	1.0
[LeftHandRing2]
110	31.54000092	0	0	-0.3849357069	2.085560799	-20.91281319	1.0
111	31.54000092	0	0	-0.3849357069	2.085560799	-20.91281319	1.0
112	31.54000092	0	0	-0.3849357069	2.085560799	-20.91281319	1.0
113	31.54000092	0	0	-0.3849357069	2.085560799	-20.91281319	1.0
[LeftHandRing3]
110	29.37700081	0	0	-0.2818065584	1.792707562	-17.86576271	1.0
111	29.37700081	0	0	-0.2818065584	1.792707562	-17.86576271	1.0
112	29.37700081	0	0	-0.2818065584	1.792707562	-17.86576271	1.0
113	29.37700081	0	0	-0.2818065584	1.792707562	-17.86576271	1.0
[LeftHandRing4]
110	26.47500038	0	0	0	0	0	1.0
111	26.47500038	0	0	0	0	0	1.0
112	26.47500038	0	0	0	0	0	1.0
113	26.47500038	0	0	0	0	0	1.0
[LeftHandPinky1]
110	80.77799988	-4.887000084	-38.06099701	-1.708467126	5.355370045	-27.1653862	1.0
111	80.77799988	-4.887000084	-38.06099701	-1.708467126	5.355370045	-27.1653862	1.0
112	80.77799988	-4.887000084	-38.06099701	-1.708467126	5.355370045	-27.1653862	1.0
113	80.77799988	-4.887000084	-38.06099701	-1.708467126	5.355370045	-27.1653862	1.0
[LeftHandPinky2]
110	36	0	0	-0.2676221728	1.748113751	-17.40663528	1.0
111	36	0	0	-0.2676221728	1.748113751	-17.40663528	1.0
112	36	0	0	-0.2676221728	1.748113751	-17.40663528	1.0
113	36	0	0	-0.2676221728	1.748113751	-17.40663528	1.0
[LeftHandPinky3]
110	21.14200211	0	0	-0.2408525199	1.660349369	-16.50663185	1.0
111	21.14200211	0	0	-0.2408525199	1.660349369	-16.50663185	1.0
112	21.14200211	0	0	-0.2408525199	1.660349369	-16.50663185	1.0
113	21.14200211	0	0	-0.2408525199	1.660349369	-16.50663185	1.0
[LeftHandPinky4]
110	19.75699997	0	0	0	0	0	1.0
111	19.75699997	0	0	0	0	0	1.0
112	19.75699997	0	0	0	0	0	1.0
113	19.75699997	0	0	0	0	0	1.0
[RightShoulder]
110	-45.70000076	109.4620056	-26.28000069	5.205074787	14.60352516	15.60661697	1.0
111	-45.70000076	109.4620056	-26.28000069	5.197296619	14.57695198	15.57396984	1.0
112	-45.70000076	109.4620056	-26.28000069	5.189174175	14.5407877	15.54424381	1.0
113	-45.70000076	109.4620056	-26.28000069	5.180674553	14.50026798	15.51442909	1.0
[RightArm]
110	-105.9280014	-5.248000145	-22.32099915	30.2463398	2.089680672	62.30613708	1.0
111	-105.9280014	-5.248000145	-22.32099915	30.26065254	2.098824501	62.29999161	1.0
112	-105.9280014	-5.248000145	-22.32099915	30.28056145	2.110195637	62.30385208	1.0
113	-105.9280014	-5.248000145	-22.32099915	30.31575966	2.121819019	62.31131744	1.0
[RightForeArm]
110	-278.414978	0	0	-3.439302645e-06	6.556004524	-8.694127246e-06	1.0
111	-278.414978	0	0	7.25362861e-06	6.558387756	8.240040756e-07	1.0
112	-278.414978	0	0	1.511139885e-06	6.535660267	-4.712446753e-06	1.0
113	-278.414978	0	0	-6.110020422e-06	6.510697365	-4.805835488e-06	1.0
[RightHand]
110	-283.2879944	0	0.0009999999311	-20.00072479	1.562707663	6.04108429	1.0
111	-283.2879944	0	0.0009999999311	-19.98844528	1.547509193	6.046008587	1.0
112	-283.2879944	0	0.0009999999311	-19.97045135	1.545167327	6.062870979	1.0
113	-283.2879944	0	0.0009999999311	-19.96454239	1.55200994	6.085066319	1.0
[RightHandPinky1]
110	-80.76699829	-4.885000229	-38.06000137	-1.507175922	-4.696118355	26.50587463	1.0
111	-80.76699829	-4.885000229	-38.06000137	-1.507175922	-4.696118355	26.50587463	1.0
112	-80.76699829	-4.885000229	-38.06000137	-1.507175922	-4.696118355	26.50587463	1.0
113	-80.76699829	-4.885000229	-38.06000137	-1.507175922	-4.696118355	26.50587463	1.0
[RightHandPinky2]
110	-36	0	0.0009999999311	-0.2127676606	-1.388874292	17.43785858	1.0
111	-36	0	0.0009999999311	-0.2127676606	-1.388874292	17.43785858	1.0
112	-36	0	0.0009999999311	-0.2127676606	-1.388874292	17.43785858	1.0
113	-36	0	0.0009999999311	-0.2127676606	-1.388874292	17.43785858	1.0
[RightHandPinky3]
110	-21.14200211	0	0	-0.1919144988	-1.32059598	16.53641129	1.0
111	-21.14200211	0	0	-0.1919144988	-1.32059598	16.53641129	1.0
112	-21.14200211	0	0	-0.1919144988	-1.32059598	16.53641129	1.0
113	-21.14200211	0	0	-0.1919144988	-1.32059598	16.53641129	1.0
[RightHandPinky4]
110	-19.75699997	0	0	0	0	0	1.0
111	-19.75699997	0	0	0	0	0	1.0
112	-19.75699997	0	0	0	0	0	1.0
113	-19.75699997	0	0	0	0	0	1.0
[RightHandRing1]
110	-91.03599548	-0.4390000105	-18.65100098	-1.045235753	-2.883111477	20.47788429	1.0
111	-91.03599548	-0.4390000105	-18.65100098	-1.045235753	-2.883111477	20.47788429	1.0
112	-91.03599548	-0.4390000105	-18.65100098	-1.045235753	-2.883111477	20.47788429	1.0
113	-91.03599548	-0.4390000105	-18.65100098	-1.045235753	-2.883111477	20.47788429	1.0
[RightHandRing2]
110	-31.54000092	0	0	-0.3066971898	-1.658752441	20.94926834	1.0
111	-31.54000092	0	0	-0.3066971898	-1.658752441	20.94926834	1.0
112	-31.54000092	0	0	-0.3066971898	-1.658752441	20.94926834	1.0
113	-31.54000092	0	0	-0.3066971898	-1.658752441	20.94926834	1.0
[RightHandRing3]
110	-29.37700081	0	0	-0.2245407403	-1.425854325	17.89771652	1.0
111	-29.37700081	0	0	-0.2245407403	-1.425854325	17.89771652	1.0
112	-29.37700081	0	0	-0.2245407403	-1.425854325	17.89771652	1.0
113	-29.37700081	0	0	-0.2245407403	-1.425854325	17.89771652	1.0
[RightHandRing4]
110	-26.47500038	0	0	0	0	0	1.0
111	-26.47500038	0	0	0	0	0	1.0
112	-26.47500038	0	0	0	0	0	1.0
113	-26.47500038	0	0	0	0	0	1.0
[RightHandMiddle1]
110	-95.32500458	0	0	-0.7017197609	-2.087752104	15.0152874	1.0
111	-95.32500458	0	0	-0.7017197609	-2.087752104	15.0152874	1.0
112	-95.32500458	0	0	-0.7017197609	-2.087752104	15.0152874	1.0
113	-95.32500458	0	0	-0.7017197609	-2.087752104	15.0152874	1.0
[RightHandMiddle2]
110	-36.98199844	0	0	-0.213228479	-1.390354872	17.43750381	1.0
111	-36.98199844	0	0	-0.213228479	-1.390354872	17.43750381	1.0
112	-36.98199844	0	0	-0.213228479	-1.390354872	17.43750381	1.0
113	-36.98199844	0	0	-0.213228479	-1.390354872	17.43750381	1.0
[RightHandMiddle3]
110	-29.50900078	0	0	-0.2384106964	-1.470119596	18.44692802	1.0
111	-29.50900078	0	0	-0.2384106964	-1.470119596	18.44692802	1.0
112	-29.50900078	0	0	-0.2384106964	-1.470119596	18.44692802	1.0
113	-29.50900078	0	0	-0.2384106964	-1.470119596	18.44692802	1.0
[RightHandMiddle4]
110	-28.3390007	0	0.0009999999311	0	0	0	1.0
111	-28.3390007	0	0.0009999999311	0	0	0	1.0
112	-28.3390007	0	0.0009999999311	0	0	0	1.0
113	-28.3390007	0	0.0009999999311	0	0	0	1.0
[RightHandIndex1]
110	-91.08300018	-5.167999744	22.60099792	0.1884763837	1.25192976	6.825599194	1.0
111	-91.08300018	-5.167999744	22.60099792	0.1884763837	1.25192976	6.825599194	1.0
112	-91.08300018	-5.167999744	22.60099792	0.1884763837	1.25192976	6.825599194	1.0
113	-91.08300018	-5.167999744	22.60099792	0.1884763837	1.25192976	6.825599194	1.0
[RightHandIndex2]
110	-36.76399994	0	0	-0.2125098109	-1.388050556	17.40767097	1.0
111	-36.76399994	0	0	-0.2125098109	-1.388050556	17.40767097	1.0
112	-36.76399994	0	0	-0.2125098109	-1.388050556	17.40767097	1.0
113	-36.76399994	0	0	-0.2125098109	-1.388050556	17.40767097	1.0
[RightHandIndex3]
110	-28.83100128	0	0	-0.04576345533	-0.650116384	8.053516388	1.0
111	-28.83100128	0	0	-0.04576345533	-0.650116384	8.053516388	1.0
112	-28.83100128	0	0	-0.04576345533	-0.650116384	8.053516388	1.0
113	-28.83100128	0	0	-0.04576345533	-0.650116384	8.053516388	1.0
[RightHandIndex4]
110	-23.92700005	0	0	0	0	0	1.0
111	-23.92700005	0	0	0	0	0	1.0
112	-23.92700005	0	0	0	0	0	1.0
113	-23.92700005	0	0	0	0	0	1.0
[RightHandThumb1]
110	-24.64799881	-15.72700024	26.82600021	-1.658462524	-0.2891407609	-4.221328735	1.0
111	-24.64799881	-15.72700024	26.82600021	-1.658462524	-0.2891407609	-4.221328735	1.0
112	-24.64799881	-15.72700024	26.82600021	-1.658462524	-0.2891407609	-4.221328735	1.0
113	-24.64799881	-15.72700024	26.82600021	-1.658462524	-0.2891407609	-4.221328735	1.0
[RightHandThumb2]
110	-32.29800034	-18.64699936	18.64699936	22.25259209	-23.88967514	-24.282444	1.0
111	-32.29800034	-18.64699936	18.64699936	22.25259209	-23.88967514	-24.282444	1.0
112	-32.29800034	-18.64699936	18.64699936	22.25259209	-23.88967514	-24.282444	1.0
113	-32.29800034	-18.64699936	18.64699936	22.25259209	-23.88967514	-24.282444	1.0
[RightHandThumb3]
110	-26.52600098	-15.31399918	15.31399918	-14.47830296	-6.743862152	-11.36570263	1.0
111	-26.52600098	-15.31399918	15.31399918	-14.47830296	-6.743862152	-11.36570263	1.0
112	-26.52600098	-15.31399918	15.31399918	-14.47830296	-6.743862152	-11.36570263	1.0
113	-26.52600098	-15.31399918	15.31399918	-14.47830296	-6.743862152	-11.36570263	1.0
[RightHandThumb4]
110	-19.54599953	-11.28499985	11.28499985	0	0	0	1.0
111	-19.54599953	-11.28499985	11.28499985	0	0	0	1.0
112	-19.54599953	-11.28499985	11.28499985	0	0	0	1.0
113	-19.54599953	-11.28499985	11.28499985	0	0	0	1.0
[LeftUpLeg]
110	82.07800293	-67.51699829	-15.99599934	-6.96703434	16.13957024	7.544450283	1.0
111	82.07800293	-67.51699829	-15.99599934	-6.987720013	16.12177086	7.526955128	1.0
112	82.07800293	-67.51699829	-15.99599934	-6.992586136	16.10096741	7.510149956	1.0
113	82.07800293	-67.51699829	-15.99599934	-6.969322681	16.07719803	7.489705086	1.0
[LeftLeg]
110	0	-443.7049866	2.845999956	11.35909176	0.7298609614	4.509709835	1.0
111	0	-443.7049866	2.845999956	11.31631565	0.7765514851	4.518030167	1.0
112	0	-443.7049866	2.845999956	11.26274967	0.8227676749	4.528097153	1.0
113	0	-443.7049866	2.845999956	11.18493271	0.8759165406	4.538402081	1.0
[LeftFoot]
110	0	-444.2789917	-29.8219986	1.508088231	0.7039509416	-7.333687305	1.0
111	0	-444.2789917	-29.8219986	1.532576323	0.7036605477	-7.324091911	1.0
112	0	-444.2789917	-29.8219986	1.55858171	0.7039582729	-7.319372654	1.0
113	0	-444.2789917	-29.8219986	1.590026379	0.7052537203	-7.32079649	1.0
[LeftToeBase]
110	0	-87.28699493	107.1060028	-4.874720097	1.0812862e-06	-2.308367129e-06	1.0
111	0	-87.28699493	107.1060028	-4.873441696	6.68255143e-06	5.229700491e-06	1.0
112	0	-87.28699493	107.1060028	-4.871575832	-7.762329233e-07	1.410915502e-06	1.0
113	0	-87.28699493	107.1060028	-4.86927557	-5.044082627e-06	1.363380022e-07	1.0
[RightUpLeg]
110	-82.07800293	-67.51699829	-15.99599934	0.7040887475	-10.72055435	2.93644309	1.0
111	-82.07800293	-67.51699829	-15.99599934	0.6906272173	-10.72179699	2.929836273	1.0
112	-82.07800293	-67.51699829	-15.99599934	0.6955411434	-10.71792126	2.923438787	1.0
113	-82.07800293	-67.51699829	-15.99599934	0.7222665548	-10.7230444	2.905322313	1.0
[RightLeg]
110	0	-443.7049866	2.861999989	8.699568748	-9.192838669	-4.726541042	1.0
111	0	-443.7049866	2.861999989	8.630745888	-9.200153351	-4.701625824	1.0
112	0	-443.7049866	2.861999989	8.544348717	-9.208045006	-4.680201054	1.0
113	0	-443.7049866	2.861999989	8.441054344	-9.216044426	-4.657606602	1.0
[RightFoot]
110	0	-444.2770081	-29.83799934	-4.723930836	-1.615818977	3.278664827	1.0
111	0	-444.2770081	-29.83799934	-4.675754547	-1.593547106	3.270081997	1.0
112	0	-444.2770081	-29.83799934	-4.621889591	-1.573851705	3.264904976	1.0
113	0	-444.2770081	-29.83799934	-4.562973022	-1.543380141	3.261732817	1.0
[RightToeBase]
110	0	-87.28699493	107.1060028	-7.054637909	9.868055713e-06	-3.388631455e-07	1.0
111	0	-87.28699493	107.1060028	-7.051636219	-6.055229278e-06	-1.358702434e-06	1.0
112	0	-87.28699493	107.1060028	-7.042959213	9.003948435e-06	-7.568928595e-07	1.0
113	0	-87.28699493	107.1060028	-7.021699429	1.013326823e-06	-1.802819156e-06	1.0
[EndOfFile]
